<svg width="168" height="168" fill="none" xmlns="http://www.w3.org/2000/svg"><path d="M57 8.58a103.67 103.67 0 0154 0L84 110 57 8.58z" fill="#fff"/><path fill-rule="evenodd" clip-rule="evenodd" d="M57 8.58a103.7 103.7 0 0154 0L84 110 57 8.58zm27 36.31l6.08-22.83a87 87 0 00-12.16 0L84 44.9z" fill="#fff"/><path fill-rule="evenodd" clip-rule="evenodd" d="M19.14 66.16a67.58 67.58 0 003.77 38.71 66.73 66.73 0 0024.4 30A65.62 65.62 0 0084 146.13c13.05 0 25.82-3.9 36.7-11.24a66.73 66.73 0 0024.39-30 67.58 67.58 0 003.78-38.72 67.12 67.12 0 00-18.15-34.27L142.7 20a84 84 0 0122.72 42.89 84.48 84.48 0 01-4.73 48.4 83.6 83.6 0 01-30.57 37.6A82.46 82.46 0 0184 163a82.46 82.46 0 01-46.11-14.12 83.61 83.61 0 01-30.57-37.6A84.49 84.49 0 012.59 62.9 84.01 84.01 0 0125.31 20l11.97 11.9a67.12 67.12 0 00-18.14 34.26z" fill="#fff"/><path fill-rule="evenodd" clip-rule="evenodd" d="M32.93 84.37a51.4 51.4 0 002.96 29.89 51.8 51.8 0 0019.18 23.21 52.33 52.33 0 0057.86 0 51.8 51.8 0 0019.18-23.21 51.4 51.4 0 00-11.29-56.37L132.8 46a68.4 68.4 0 0118.88 35.1 68.1 68.1 0 01-3.92 39.6 68.65 68.65 0 01-25.42 30.75 69.33 69.33 0 01-76.66 0 68.64 68.64 0 01-25.42-30.76 68.11 68.11 0 01-3.92-39.6A68.4 68.4 0 0135.2 46l11.97 11.89a51.62 51.62 0 00-14.25 26.48z" fill="#fff"/><path fill-rule="evenodd" clip-rule="evenodd" d="M47.42 102.67a35.6 35.6 0 002.08 20.82 36.6 36.6 0 0013.63 16.37A37.91 37.91 0 0084 146.1c7.46 0 14.73-2.19 20.87-6.24a36.6 36.6 0 0013.63-16.37 35.6 35.6 0 002.08-20.82 36.15 36.15 0 00-10.07-18.58L122.18 72a53.1 53.1 0 0114.78 27.3 52.66 52.66 0 01-3.07 30.8A53.46 53.46 0 01114 154.01 54.5 54.5 0 0184 163a54.5 54.5 0 01-30-8.98 53.46 53.46 0 01-19.89-23.93 52.67 52.67 0 01-3.07-30.8A53.1 53.1 0 0145.82 72l11.67 12.1a36.14 36.14 0 00-10.07 18.57z" fill="#fff"/></svg>