<svg width="8727" height="1752" viewBox="0 0 8727 1752" fill="none" xmlns="http://www.w3.org/2000/svg">
<path d="M5467.94 540.73H5572.44L5369.2 1064.69H5264.7L5467.94 540.73Z" fill="black"/>
<path d="M5572.7 540.73H5467.95L5671.67 1064.69H5776.42L5572.7 540.73Z" fill="black"/>
<path d="M5408.1 854.199H5642.33V958.703H5408.1V854.199Z" fill="black"/>
<path d="M4784.7 542.191H4889.2V961.647H4784.7V542.191Z" fill="black"/>
<path d="M4784.7 961.645H5098.21V1066.15H4784.7V961.645Z" fill="black"/>
<path d="M8597.28 1064.71L8726.65 1064.71L8422.51 540.752L8293.14 540.752L8597.28 1064.71Z" fill="black"/>
<path d="M8293.14 540.73H8397.64V1064.69H8293.14V540.73Z" fill="black"/>
<path d="M8622.5 540.73H8727V1064.69H8622.5V540.73Z" fill="black"/>
<path d="M8126.65 802.71C8126.65 947.397 8009.36 1064.69 7864.67 1064.69C7719.99 1064.69 7602.69 947.397 7602.69 802.71C7602.69 658.023 7719.99 540.73 7864.67 540.73C8009.36 540.73 8126.65 658.023 8126.65 802.71ZM7707.19 802.71C7707.19 889.683 7777.7 960.188 7864.67 960.188C7951.65 960.188 8022.15 889.683 8022.15 802.71C8022.15 715.737 7951.65 645.231 7864.67 645.231C7777.7 645.231 7707.19 715.737 7707.19 802.71Z" fill="black"/>
<path d="M5942.87 540.73H6047.37V1064.69H5942.87V540.73Z" fill="black"/>
<path d="M6136.07 856.403C6177.82 856.403 6217.85 839.774 6247.37 810.174C6276.89 780.574 6293.47 740.428 6293.47 698.567C6293.47 656.706 6276.89 616.56 6247.37 586.96C6217.85 557.36 6177.82 540.73 6136.07 540.73H6047.38V635.432H6136.07C6152.77 635.432 6168.79 642.084 6180.59 653.924C6192.4 665.764 6199.03 681.822 6199.03 698.567C6199.03 715.311 6192.4 731.37 6180.59 743.21C6168.79 755.05 6152.77 761.701 6136.07 761.701L6047.38 761.625V856.403H6136.07Z" fill="black"/>
<path d="M6062.16 814.68L6176.3 814.68L6343.96 1064.73L6216.49 1064.73L6062.16 814.68Z" fill="black"/>
<path d="M6510.09 909.658C6510.09 929.912 6515 949.968 6524.55 968.68C6534.09 987.393 6548.08 1004.4 6565.71 1018.72C6583.35 1033.04 6604.28 1044.4 6627.32 1052.15C6650.36 1059.9 6675.06 1063.89 6700 1063.89L6700 971.351C6690.02 971.351 6680.14 969.755 6670.93 966.655C6661.71 963.554 6653.34 959.01 6646.28 953.281C6639.23 947.553 6633.63 940.752 6629.82 933.267C6626 925.782 6624.03 917.76 6624.03 909.658L6510.09 909.658Z" fill="black"/>
<path d="M6699.98 1063.94C6724.92 1063.94 6749.62 1059.95 6772.66 1052.2C6795.7 1044.44 6816.64 1033.08 6834.27 1018.76C6851.9 1004.44 6865.89 987.438 6875.44 968.725C6884.98 950.013 6889.89 929.957 6889.89 909.703L6775.95 909.703C6775.95 917.805 6773.98 925.827 6770.17 933.312C6766.35 940.797 6760.75 947.598 6753.7 953.327C6746.64 959.055 6738.27 963.6 6729.05 966.7C6719.84 969.8 6709.96 971.396 6699.98 971.396L6699.98 1063.94Z" fill="black"/>
<path d="M6889.91 909.76C6889.91 889.506 6884.99 869.45 6875.45 850.738C6865.91 832.025 6851.92 815.023 6834.28 800.701C6816.65 786.379 6795.71 775.019 6772.67 767.268C6749.63 759.517 6724.94 755.527 6700 755.527V848.067C6709.97 848.067 6719.85 849.663 6729.07 852.763C6738.28 855.863 6746.66 860.408 6753.71 866.137C6760.77 871.865 6766.36 878.666 6770.18 886.151C6774 893.636 6775.96 901.658 6775.96 909.76H6889.91Z" fill="black"/>
<path d="M6510.09 693.853C6510.09 714.107 6515 734.163 6524.55 752.875C6534.09 771.588 6548.08 788.59 6565.71 802.912C6583.35 817.234 6604.28 828.595 6627.32 836.346C6650.36 844.097 6675.06 848.086 6700 848.086L6700 755.546C6690.02 755.546 6680.14 753.951 6670.93 750.85C6661.71 747.75 6653.34 743.206 6646.28 737.477C6639.23 731.748 6633.63 724.947 6629.82 717.462C6626 709.977 6624.03 701.955 6624.03 693.853L6510.09 693.853Z" fill="black"/>
<path d="M6699.99 540.037C6675.05 540.037 6650.35 544.026 6627.31 551.777C6604.27 559.528 6583.34 570.889 6565.7 585.21C6548.07 599.532 6534.08 616.535 6524.53 635.247C6514.99 653.96 6510.08 674.015 6510.08 694.27L6624.02 694.27C6624.02 686.168 6625.99 678.146 6629.81 670.661C6633.62 663.176 6639.22 656.375 6646.27 650.646C6653.33 644.917 6661.7 640.373 6670.92 637.273C6680.13 634.172 6690.01 632.576 6699.99 632.576L6699.99 540.037Z" fill="black"/>
<path d="M6889.91 694.233C6889.91 673.979 6884.99 653.923 6875.45 635.21C6865.91 616.498 6851.92 599.496 6834.28 585.174C6816.65 570.852 6795.71 559.491 6772.67 551.74C6749.63 543.989 6724.94 540 6700 540V632.54C6709.97 632.54 6719.85 634.135 6729.07 637.236C6738.28 640.336 6746.66 644.88 6753.71 650.609C6760.77 656.338 6766.36 663.139 6770.18 670.624C6774 678.109 6775.96 686.131 6775.96 694.233H6889.91Z" fill="black"/>
<path d="M7056.4 909.658C7056.4 929.912 7061.31 949.968 7070.85 968.68C7080.4 987.393 7094.38 1004.4 7112.02 1018.72C7129.65 1033.04 7150.59 1044.4 7173.63 1052.15C7196.67 1059.9 7221.37 1063.89 7246.3 1063.89L7246.3 971.351C7236.33 971.351 7226.45 969.755 7217.23 966.655C7208.02 963.554 7199.64 959.01 7192.59 953.281C7185.54 947.553 7179.94 940.752 7176.12 933.267C7172.31 925.782 7170.34 917.76 7170.34 909.658L7056.4 909.658Z" fill="black"/>
<path d="M7246.28 1063.94C7271.22 1063.94 7295.92 1059.95 7318.96 1052.2C7342 1044.44 7362.93 1033.08 7380.57 1018.76C7398.2 1004.44 7412.19 987.438 7421.73 968.725C7431.28 950.013 7436.19 929.957 7436.19 909.703L7322.24 909.703C7322.24 917.805 7320.28 925.827 7316.46 933.312C7312.64 940.797 7307.05 947.598 7300 953.327C7292.94 959.055 7284.57 963.6 7275.35 966.7C7266.13 969.8 7256.26 971.396 7246.28 971.396L7246.28 1063.94Z" fill="black"/>
<path d="M7436.21 909.76C7436.21 889.506 7431.3 869.45 7421.76 850.738C7412.21 832.025 7398.22 815.023 7380.59 800.701C7362.96 786.379 7342.02 775.019 7318.98 767.268C7295.94 759.517 7271.24 755.527 7246.3 755.527V848.067C7256.28 848.067 7266.16 849.663 7275.37 852.763C7284.59 855.863 7292.96 860.408 7300.02 866.137C7307.07 871.865 7312.67 878.666 7316.49 886.151C7320.3 893.636 7322.27 901.658 7322.27 909.76H7436.21Z" fill="black"/>
<path d="M7056.4 693.853C7056.4 714.107 7061.31 734.163 7070.85 752.875C7080.4 771.588 7094.38 788.59 7112.02 802.912C7129.65 817.234 7150.59 828.595 7173.63 836.346C7196.67 844.097 7221.37 848.086 7246.3 848.086L7246.3 755.546C7236.33 755.546 7226.45 753.951 7217.23 750.85C7208.02 747.75 7199.64 743.206 7192.59 737.477C7185.54 731.748 7179.94 724.947 7176.12 717.462C7172.31 709.977 7170.34 701.955 7170.34 693.853L7056.4 693.853Z" fill="black"/>
<path d="M7246.25 540.037C7221.31 540.037 7196.61 544.026 7173.57 551.777C7150.53 559.528 7129.6 570.889 7111.96 585.21C7094.33 599.532 7080.34 616.535 7070.8 635.247C7061.25 653.96 7056.34 674.015 7056.34 694.27L7170.28 694.27C7170.28 686.168 7172.25 678.146 7176.07 670.661C7179.88 663.176 7185.48 656.375 7192.53 650.646C7199.59 644.917 7207.96 640.373 7217.18 637.273C7226.39 634.172 7236.27 632.576 7246.25 632.576L7246.25 540.037Z" fill="black"/>
<path d="M7436.21 694.233C7436.21 673.979 7431.3 653.923 7421.76 635.21C7412.21 616.498 7398.22 599.496 7380.59 585.174C7362.96 570.852 7342.02 559.491 7318.98 551.74C7295.94 543.989 7271.24 540 7246.3 540V632.54C7256.28 632.54 7266.16 634.135 7275.37 637.236C7284.59 640.336 7292.96 644.88 7300.02 650.609C7307.07 656.338 7312.67 663.139 7316.49 670.624C7320.3 678.109 7322.27 686.131 7322.27 694.233H7436.21Z" fill="black"/>
<path d="M2292.24 541.461H2396.74L2193.5 1065.42H2089L2292.24 541.461Z" fill="black"/>
<path d="M2396.98 541.461H2292.23L2495.95 1065.42H2600.7L2396.98 541.461Z" fill="black"/>
<path d="M2232.46 854.934H2466.69V959.437H2232.46V854.934Z" fill="black"/>
<path d="M3900.17 540H4004.67V1063.96H3900.17V540Z" fill="black"/>
<path d="M4161.77 749.773L4161.77 854.277L3900.15 854.277L3900.15 749.773L4161.77 749.773Z" fill="black"/>
<path d="M4214.36 959.449L4214.36 1063.95L3900.13 1063.95L3900.13 959.449L4214.36 959.449Z" fill="black"/>
<path d="M4214.36 540L4214.36 644.504L3900.13 644.504L3900.13 540L4214.36 540Z" fill="black"/>
<path d="M2767.19 540H2871.7V959.455H2767.19V540Z" fill="black"/>
<path d="M2767.19 959.449H3080.7V1063.95H2767.19V959.449Z" fill="black"/>
<path d="M3540.44 1065.43L3441.07 1065.43L3634.32 541.475L3733.68 541.475L3540.44 1065.43Z" fill="black"/>
<path d="M3440.92 1065.43L3540.52 1065.43L3346.8 541.474L3247.19 541.474L3440.92 1065.43Z" fill="black"/>
<path d="M1006.57 755.293C1006.46 756.195 1006.13 756.893 1005.57 757.385C1005.01 757.873 1004.26 758.117 1003.33 758.117C1002.33 758.117 1001.52 757.756 1000.91 757.033C1000.3 756.311 1000 755.344 1000 754.133V753.312C1000 752.52 1000.14 751.822 1000.42 751.221C1000.71 750.619 1001.11 750.158 1001.63 749.838C1002.15 749.514 1002.75 749.352 1003.43 749.352C1004.34 749.352 1005.07 749.605 1005.61 750.113C1006.16 750.617 1006.48 751.316 1006.57 752.211H1005.44C1005.34 751.531 1005.13 751.039 1004.8 750.734C1004.47 750.43 1004.02 750.277 1003.43 750.277C1002.71 750.277 1002.15 750.543 1001.74 751.074C1001.33 751.605 1001.13 752.361 1001.13 753.342V754.168C1001.13 755.094 1001.32 755.83 1001.71 756.377C1002.1 756.924 1002.64 757.197 1003.33 757.197C1003.96 757.197 1004.44 757.057 1004.77 756.775C1005.11 756.49 1005.33 755.996 1005.44 755.293H1006.57Z" fill="black"/>
<path d="M1007.65 754.771C1007.65 754.15 1007.77 753.592 1008.02 753.096C1008.26 752.6 1008.6 752.217 1009.04 751.947C1009.47 751.678 1009.97 751.543 1010.53 751.543C1011.39 751.543 1012.09 751.842 1012.62 752.439C1013.16 753.037 1013.42 753.832 1013.42 754.824V754.9C1013.42 755.518 1013.3 756.072 1013.07 756.564C1012.83 757.053 1012.49 757.434 1012.05 757.707C1011.62 757.98 1011.11 758.117 1010.54 758.117C1009.68 758.117 1008.98 757.818 1008.45 757.221C1007.92 756.623 1007.65 755.832 1007.65 754.848V754.771ZM1008.74 754.9C1008.74 755.604 1008.9 756.168 1009.23 756.594C1009.56 757.02 1009.99 757.232 1010.54 757.232C1011.09 757.232 1011.53 757.018 1011.85 756.588C1012.18 756.154 1012.34 755.549 1012.34 754.771C1012.34 754.076 1012.17 753.514 1011.84 753.084C1011.51 752.65 1011.08 752.434 1010.53 752.434C1009.99 752.434 1009.56 752.646 1009.23 753.072C1008.91 753.498 1008.74 754.107 1008.74 754.9Z" fill="black"/>
<path d="M1020.14 754.9C1020.14 755.865 1019.92 756.643 1019.48 757.232C1019.04 757.822 1018.44 758.117 1017.68 758.117C1016.91 758.117 1016.31 757.873 1015.87 757.385V760.438H1014.78V751.66H1015.77L1015.83 752.363C1016.27 751.816 1016.88 751.543 1017.67 751.543C1018.43 751.543 1019.03 751.83 1019.47 752.404C1019.92 752.979 1020.14 753.777 1020.14 754.801V754.9ZM1019.05 754.777C1019.05 754.062 1018.9 753.498 1018.6 753.084C1018.29 752.67 1017.88 752.463 1017.34 752.463C1016.69 752.463 1016.2 752.754 1015.87 753.336V756.365C1016.19 756.943 1016.69 757.232 1017.36 757.232C1017.88 757.232 1018.29 757.027 1018.59 756.617C1018.9 756.203 1019.05 755.59 1019.05 754.777Z" fill="black"/>
<path d="M1023.53 756.412L1025 751.66H1026.16L1023.61 758.979C1023.22 760.033 1022.59 760.561 1021.73 760.561L1021.53 760.543L1021.12 760.467V759.588L1021.42 759.611C1021.78 759.611 1022.07 759.537 1022.27 759.389C1022.48 759.24 1022.65 758.969 1022.78 758.574L1023.02 757.93L1020.76 751.66H1021.94L1023.53 756.412Z" fill="black"/>
<path d="M1030.2 752.633C1030.04 752.605 1029.86 752.592 1029.67 752.592C1028.96 752.592 1028.47 752.895 1028.22 753.5V758H1027.13V751.66H1028.19L1028.21 752.393C1028.56 751.826 1029.07 751.543 1029.72 751.543C1029.93 751.543 1030.09 751.57 1030.2 751.625V752.633Z" fill="black"/>
<path d="M1032.38 758H1031.29V751.66H1032.38V758ZM1031.21 749.979C1031.21 749.803 1031.26 749.654 1031.37 749.533C1031.47 749.412 1031.63 749.352 1031.85 749.352C1032.06 749.352 1032.22 749.412 1032.33 749.533C1032.44 749.654 1032.49 749.803 1032.49 749.979C1032.49 750.154 1032.44 750.301 1032.33 750.418C1032.22 750.535 1032.06 750.594 1031.85 750.594C1031.63 750.594 1031.47 750.535 1031.37 750.418C1031.26 750.301 1031.21 750.154 1031.21 749.979Z" fill="black"/>
<path d="M1033.86 754.777C1033.86 753.789 1034.09 753.004 1034.55 752.422C1035 751.836 1035.61 751.543 1036.36 751.543C1037.14 751.543 1037.74 751.816 1038.17 752.363L1038.23 751.66H1039.22V757.848C1039.22 758.668 1038.97 759.314 1038.48 759.787C1038 760.26 1037.35 760.496 1036.53 760.496C1036.07 760.496 1035.62 760.398 1035.19 760.203C1034.75 760.008 1034.41 759.74 1034.18 759.4L1034.75 758.75C1035.21 759.324 1035.78 759.611 1036.45 759.611C1036.98 759.611 1037.39 759.463 1037.68 759.166C1037.98 758.869 1038.13 758.451 1038.13 757.912V757.367C1037.69 757.867 1037.1 758.117 1036.35 758.117C1035.61 758.117 1035.01 757.818 1034.55 757.221C1034.09 756.623 1033.86 755.809 1033.86 754.777ZM1034.95 754.9C1034.95 755.615 1035.1 756.178 1035.39 756.588C1035.68 756.994 1036.09 757.197 1036.62 757.197C1037.3 757.197 1037.81 756.887 1038.13 756.266V753.371C1037.79 752.766 1037.3 752.463 1036.63 752.463C1036.11 752.463 1035.69 752.668 1035.4 753.078C1035.1 753.488 1034.95 754.096 1034.95 754.9Z" fill="black"/>
<path d="M1041.94 752.428C1042.42 751.838 1043.05 751.543 1043.82 751.543C1045.16 751.543 1045.83 752.299 1045.84 753.811V758H1044.76V753.805C1044.76 753.348 1044.65 753.01 1044.44 752.791C1044.24 752.572 1043.92 752.463 1043.49 752.463C1043.14 752.463 1042.83 752.557 1042.56 752.744C1042.3 752.932 1042.09 753.178 1041.94 753.482V758H1040.86V749H1041.94V752.428Z" fill="black"/>
<path d="M1048.94 750.125V751.66H1050.12V752.498H1048.94V756.43C1048.94 756.684 1048.99 756.875 1049.1 757.004C1049.2 757.129 1049.38 757.191 1049.63 757.191C1049.76 757.191 1049.93 757.168 1050.15 757.121V758C1049.87 758.078 1049.59 758.117 1049.32 758.117C1048.83 758.117 1048.47 757.971 1048.22 757.678C1047.98 757.385 1047.85 756.969 1047.85 756.43V752.498H1046.7V751.66H1047.85V750.125H1048.94Z" fill="black"/>
<path d="M1059.25 755.773H1055.68L1054.87 758H1053.71L1056.97 749.469H1057.96L1061.22 758H1060.06L1059.25 755.773ZM1056.02 754.848H1058.92L1057.46 750.857L1056.02 754.848Z" fill="black"/>
<path d="M1063.38 758H1062.29V749H1063.38V758Z" fill="black"/>
<path d="M1067.21 756.529L1068.78 751.66H1069.88L1067.61 758H1066.79L1064.49 751.66H1065.6L1067.21 756.529Z" fill="black"/>
<path d="M1073.48 758.117C1072.62 758.117 1071.92 757.836 1071.38 757.273C1070.84 756.707 1070.57 755.951 1070.57 755.006V754.807C1070.57 754.178 1070.69 753.617 1070.93 753.125C1071.17 752.629 1071.51 752.242 1071.94 751.965C1072.37 751.684 1072.84 751.543 1073.34 751.543C1074.17 751.543 1074.81 751.814 1075.26 752.357C1075.72 752.9 1075.95 753.678 1075.95 754.689V755.141H1071.65C1071.67 755.766 1071.85 756.271 1072.2 756.658C1072.55 757.041 1073 757.232 1073.54 757.232C1073.92 757.232 1074.24 757.154 1074.51 756.998C1074.77 756.842 1075.01 756.635 1075.21 756.377L1075.87 756.893C1075.34 757.709 1074.54 758.117 1073.48 758.117ZM1073.34 752.434C1072.9 752.434 1072.54 752.594 1072.24 752.914C1071.94 753.23 1071.76 753.676 1071.69 754.25H1074.87V754.168C1074.83 753.617 1074.69 753.191 1074.42 752.891C1074.15 752.586 1073.79 752.434 1073.34 752.434Z" fill="black"/>
<path d="M1081.49 757.08H1085.53V758H1080.36V749.469H1081.49V757.08Z" fill="black"/>
<path d="M1090.56 758C1090.49 757.875 1090.44 757.652 1090.4 757.332C1089.9 757.855 1089.3 758.117 1088.6 758.117C1087.97 758.117 1087.46 757.941 1087.06 757.59C1086.66 757.234 1086.46 756.785 1086.46 756.242C1086.46 755.582 1086.71 755.07 1087.21 754.707C1087.71 754.34 1088.42 754.156 1089.33 754.156H1090.39V753.658C1090.39 753.279 1090.27 752.979 1090.05 752.756C1089.82 752.529 1089.49 752.416 1089.04 752.416C1088.66 752.416 1088.33 752.514 1088.07 752.709C1087.81 752.904 1087.68 753.141 1087.68 753.418H1086.59C1086.59 753.102 1086.7 752.797 1086.92 752.504C1087.15 752.207 1087.46 751.973 1087.84 751.801C1088.22 751.629 1088.65 751.543 1089.11 751.543C1089.84 751.543 1090.41 751.727 1090.83 752.094C1091.24 752.457 1091.46 752.959 1091.47 753.6V756.518C1091.47 757.1 1091.54 757.562 1091.69 757.906V758H1090.56ZM1088.76 757.174C1089.1 757.174 1089.42 757.086 1089.72 756.91C1090.03 756.734 1090.25 756.506 1090.39 756.225V754.924H1089.54C1088.21 754.924 1087.54 755.312 1087.54 756.09C1087.54 756.43 1087.66 756.695 1087.88 756.887C1088.11 757.078 1088.4 757.174 1088.76 757.174Z" fill="black"/>
<path d="M1096.23 752.633C1096.07 752.605 1095.89 752.592 1095.7 752.592C1094.99 752.592 1094.51 752.895 1094.25 753.5V758H1093.17V751.66H1094.22L1094.24 752.393C1094.6 751.826 1095.1 751.543 1095.75 751.543C1095.96 751.543 1096.12 751.57 1096.23 751.625V752.633Z" fill="black"/>
<path d="M1100.93 756.318C1100.93 756.025 1100.82 755.799 1100.59 755.639C1100.38 755.475 1099.99 755.334 1099.44 755.217C1098.89 755.1 1098.46 754.959 1098.13 754.795C1097.81 754.631 1097.57 754.436 1097.42 754.209C1097.27 753.982 1097.19 753.713 1097.19 753.4C1097.19 752.881 1097.41 752.441 1097.85 752.082C1098.29 751.723 1098.85 751.543 1099.53 751.543C1100.25 751.543 1100.83 751.729 1101.28 752.1C1101.73 752.471 1101.95 752.945 1101.95 753.523H1100.86C1100.86 753.227 1100.74 752.971 1100.48 752.756C1100.23 752.541 1099.92 752.434 1099.53 752.434C1099.14 752.434 1098.83 752.52 1098.61 752.691C1098.38 752.863 1098.27 753.088 1098.27 753.365C1098.27 753.627 1098.38 753.824 1098.58 753.957C1098.79 754.09 1099.16 754.217 1099.7 754.338C1100.25 754.459 1100.69 754.604 1101.02 754.771C1101.36 754.939 1101.61 755.143 1101.77 755.381C1101.93 755.615 1102.01 755.902 1102.01 756.242C1102.01 756.809 1101.79 757.264 1101.33 757.607C1100.88 757.947 1100.29 758.117 1099.57 758.117C1099.06 758.117 1098.61 758.027 1098.22 757.848C1097.83 757.668 1097.52 757.418 1097.3 757.098C1097.08 756.773 1096.97 756.424 1096.97 756.049H1098.06C1098.08 756.412 1098.22 756.701 1098.49 756.916C1098.76 757.127 1099.12 757.232 1099.57 757.232C1099.98 757.232 1100.31 757.15 1100.55 756.986C1100.8 756.818 1100.93 756.596 1100.93 756.318Z" fill="black"/>
<path d="M1107.7 757.08H1111.74V758H1106.57V749.469H1107.7V757.08Z" fill="black"/>
<path d="M1116.77 758C1116.71 757.875 1116.66 757.652 1116.62 757.332C1116.12 757.855 1115.51 758.117 1114.81 758.117C1114.19 758.117 1113.68 757.941 1113.27 757.59C1112.88 757.234 1112.68 756.785 1112.68 756.242C1112.68 755.582 1112.93 755.07 1113.43 754.707C1113.93 754.34 1114.64 754.156 1115.55 754.156H1116.6V753.658C1116.6 753.279 1116.49 752.979 1116.26 752.756C1116.04 752.529 1115.7 752.416 1115.26 752.416C1114.87 752.416 1114.55 752.514 1114.29 752.709C1114.03 752.904 1113.89 753.141 1113.89 753.418H1112.8C1112.8 753.102 1112.92 752.797 1113.14 752.504C1113.37 752.207 1113.67 751.973 1114.05 751.801C1114.44 751.629 1114.86 751.543 1115.32 751.543C1116.05 751.543 1116.63 751.727 1117.04 752.094C1117.46 752.457 1117.67 752.959 1117.69 753.6V756.518C1117.69 757.1 1117.76 757.562 1117.91 757.906V758H1116.77ZM1114.97 757.174C1115.31 757.174 1115.63 757.086 1115.94 756.91C1116.24 756.734 1116.46 756.506 1116.6 756.225V754.924H1115.75C1114.42 754.924 1113.76 755.312 1113.76 756.09C1113.76 756.43 1113.87 756.695 1114.1 756.887C1114.33 757.078 1114.62 757.174 1114.97 757.174Z" fill="black"/>
<path d="M1122.45 752.633C1122.29 752.605 1122.11 752.592 1121.92 752.592C1121.21 752.592 1120.72 752.895 1120.47 753.5V758H1119.38V751.66H1120.44L1120.46 752.393C1120.81 751.826 1121.32 751.543 1121.97 751.543C1122.18 751.543 1122.34 751.57 1122.45 751.625V752.633Z" fill="black"/>
<path d="M1127.14 756.318C1127.14 756.025 1127.03 755.799 1126.81 755.639C1126.59 755.475 1126.21 755.334 1125.65 755.217C1125.11 755.1 1124.67 754.959 1124.35 754.795C1124.03 754.631 1123.79 754.436 1123.63 754.209C1123.48 753.982 1123.4 753.713 1123.4 753.4C1123.4 752.881 1123.62 752.441 1124.06 752.082C1124.5 751.723 1125.06 751.543 1125.75 751.543C1126.47 751.543 1127.05 751.729 1127.49 752.1C1127.94 752.471 1128.17 752.945 1128.17 753.523H1127.08C1127.08 753.227 1126.95 752.971 1126.7 752.756C1126.45 752.541 1126.13 752.434 1125.75 752.434C1125.35 752.434 1125.04 752.52 1124.82 752.691C1124.6 752.863 1124.49 753.088 1124.49 753.365C1124.49 753.627 1124.59 753.824 1124.8 753.957C1125.01 754.09 1125.38 754.217 1125.92 754.338C1126.46 754.459 1126.9 754.604 1127.24 754.771C1127.57 754.939 1127.82 755.143 1127.98 755.381C1128.14 755.615 1128.23 755.902 1128.23 756.242C1128.23 756.809 1128 757.264 1127.55 757.607C1127.09 757.947 1126.51 758.117 1125.78 758.117C1125.28 758.117 1124.83 758.027 1124.44 757.848C1124.04 757.668 1123.74 757.418 1123.52 757.098C1123.3 756.773 1123.19 756.424 1123.19 756.049H1124.27C1124.29 756.412 1124.44 756.701 1124.71 756.916C1124.98 757.127 1125.34 757.232 1125.78 757.232C1126.19 757.232 1126.52 757.15 1126.77 756.986C1127.02 756.818 1127.14 756.596 1127.14 756.318Z" fill="black"/>
<path d="M1133.33 756.318C1133.33 756.025 1133.22 755.799 1133 755.639C1132.78 755.475 1132.39 755.334 1131.84 755.217C1131.29 755.1 1130.86 754.959 1130.54 754.795C1130.21 754.631 1129.98 754.436 1129.82 754.209C1129.67 753.982 1129.59 753.713 1129.59 753.4C1129.59 752.881 1129.81 752.441 1130.25 752.082C1130.69 751.723 1131.25 751.543 1131.94 751.543C1132.65 751.543 1133.24 751.729 1133.68 752.1C1134.13 752.471 1134.36 752.945 1134.36 753.523H1133.27C1133.27 753.227 1133.14 752.971 1132.88 752.756C1132.63 752.541 1132.32 752.434 1131.94 752.434C1131.54 752.434 1131.23 752.52 1131.01 752.691C1130.79 752.863 1130.68 753.088 1130.68 753.365C1130.68 753.627 1130.78 753.824 1130.99 753.957C1131.19 754.09 1131.57 754.217 1132.11 754.338C1132.65 754.459 1133.09 754.604 1133.42 754.771C1133.76 754.939 1134.01 755.143 1134.17 755.381C1134.33 755.615 1134.41 755.902 1134.41 756.242C1134.41 756.809 1134.19 757.264 1133.73 757.607C1133.28 757.947 1132.69 758.117 1131.97 758.117C1131.46 758.117 1131.01 758.027 1130.62 757.848C1130.23 757.668 1129.93 757.418 1129.7 757.098C1129.48 756.773 1129.38 756.424 1129.38 756.049H1130.46C1130.48 756.412 1130.62 756.701 1130.89 756.916C1131.17 757.127 1131.53 757.232 1131.97 757.232C1132.38 757.232 1132.71 757.15 1132.96 756.986C1133.21 756.818 1133.33 756.596 1133.33 756.318Z" fill="black"/>
<path d="M1135.54 754.771C1135.54 754.15 1135.66 753.592 1135.9 753.096C1136.15 752.6 1136.49 752.217 1136.92 751.947C1137.36 751.678 1137.86 751.543 1138.42 751.543C1139.28 751.543 1139.98 751.842 1140.51 752.439C1141.04 753.037 1141.31 753.832 1141.31 754.824V754.9C1141.31 755.518 1141.19 756.072 1140.95 756.564C1140.72 757.053 1140.38 757.434 1139.94 757.707C1139.5 757.98 1139 758.117 1138.43 758.117C1137.57 758.117 1136.87 757.818 1136.34 757.221C1135.8 756.623 1135.54 755.832 1135.54 754.848V754.771ZM1136.63 754.9C1136.63 755.604 1136.79 756.168 1137.12 756.594C1137.44 757.02 1137.88 757.232 1138.43 757.232C1138.98 757.232 1139.42 757.018 1139.74 756.588C1140.06 756.154 1140.23 755.549 1140.23 754.771C1140.23 754.076 1140.06 753.514 1139.73 753.084C1139.4 752.65 1138.96 752.434 1138.42 752.434C1137.88 752.434 1137.45 752.646 1137.12 753.072C1136.79 753.498 1136.63 754.107 1136.63 754.9Z" fill="black"/>
<path d="M1143.7 751.66L1143.73 752.457C1144.21 751.848 1144.85 751.543 1145.63 751.543C1146.97 751.543 1147.64 752.299 1147.66 753.811V758H1146.57V753.805C1146.57 753.348 1146.46 753.01 1146.26 752.791C1146.05 752.572 1145.73 752.463 1145.3 752.463C1144.95 752.463 1144.64 752.557 1144.38 752.744C1144.11 752.932 1143.9 753.178 1143.75 753.482V758H1142.67V751.66H1143.7Z" fill="black"/>
<path d="M1157.75 758H1152.16V757.221L1155.11 753.939C1155.55 753.443 1155.85 753.041 1156.01 752.732C1156.18 752.42 1156.26 752.098 1156.26 751.766C1156.26 751.32 1156.13 750.955 1155.86 750.67C1155.59 750.385 1155.23 750.242 1154.78 750.242C1154.24 750.242 1153.82 750.396 1153.52 750.705C1153.22 751.01 1153.08 751.436 1153.08 751.982H1151.99C1151.99 751.197 1152.24 750.562 1152.75 750.078C1153.26 749.594 1153.93 749.352 1154.78 749.352C1155.57 749.352 1156.2 749.561 1156.66 749.979C1157.12 750.393 1157.35 750.945 1157.35 751.637C1157.35 752.477 1156.82 753.477 1155.75 754.637L1153.46 757.115H1157.75V758Z" fill="black"/>
<path d="M1164.24 754.361C1164.24 755.631 1164.03 756.574 1163.59 757.191C1163.16 757.809 1162.48 758.117 1161.56 758.117C1160.65 758.117 1159.98 757.816 1159.54 757.215C1159.1 756.609 1158.88 755.707 1158.86 754.508V753.061C1158.86 751.807 1159.08 750.875 1159.51 750.266C1159.94 749.656 1160.62 749.352 1161.55 749.352C1162.47 749.352 1163.14 749.646 1163.58 750.236C1164.01 750.822 1164.23 751.729 1164.24 752.955V754.361ZM1163.16 752.879C1163.16 751.961 1163.03 751.293 1162.77 750.875C1162.52 750.453 1162.11 750.242 1161.55 750.242C1160.99 750.242 1160.59 750.451 1160.34 750.869C1160.08 751.287 1159.95 751.93 1159.94 752.797V754.531C1159.94 755.453 1160.08 756.135 1160.34 756.576C1160.61 757.014 1161.02 757.232 1161.56 757.232C1162.1 757.232 1162.49 757.025 1162.75 756.611C1163.01 756.197 1163.15 755.545 1163.16 754.654V752.879Z" fill="black"/>
<path d="M1171.22 758H1165.63V757.221L1168.59 753.939C1169.02 753.443 1169.32 753.041 1169.49 752.732C1169.66 752.42 1169.74 752.098 1169.74 751.766C1169.74 751.32 1169.61 750.955 1169.34 750.67C1169.07 750.385 1168.71 750.242 1168.26 750.242C1167.72 750.242 1167.3 750.396 1167 750.705C1166.7 751.01 1166.55 751.436 1166.55 751.982H1165.47C1165.47 751.197 1165.72 750.562 1166.22 750.078C1166.73 749.594 1167.41 749.352 1168.26 749.352C1169.05 749.352 1169.68 749.561 1170.14 749.979C1170.6 750.393 1170.83 750.945 1170.83 751.637C1170.83 752.477 1170.29 753.477 1169.22 754.637L1166.94 757.115H1171.22V758Z" fill="black"/>
<path d="M1175.93 758H1174.84V750.775L1172.66 751.578V750.594L1175.76 749.428H1175.93V758Z" fill="black"/>
<path fill-rule="evenodd" clip-rule="evenodd" d="M1340 762C1302.56 816.932 1239.49 853 1168 853L858.998 853C858.998 809.616 872.28 769.335 895 736C932.439 681.068 995.507 645 1067 645L1376 645C1376 688.384 1362.72 728.665 1340 762Z" fill="black"/>
<path fill-rule="evenodd" clip-rule="evenodd" d="M1340 762C1302.56 816.932 1239.49 853 1168 853L858.998 853C858.998 809.616 872.28 769.335 895 736C932.439 681.068 995.507 645 1067 645L1376 645C1376 688.384 1362.72 728.665 1340 762Z" fill="black"/>
<path d="M225.059 143.349L736.035 280.264C906.638 325.977 1009.41 498.481 970.128 669.228L906.256 652.114L897.016 770.765L1053.06 812.578L1080.27 711.037C1081.3 707.201 1082.27 703.363 1083.2 699.524C1139.16 466.339 999.34 229.689 766.317 167.251L142.123 -0.00137615L114.915 101.539C113.888 105.376 112.913 109.213 111.992 113.052C56.0276 346.237 195.848 582.888 428.871 645.326L523.025 549.427L459.153 532.313C288.55 486.6 185.78 314.096 225.059 143.349Z" fill="black"/>
<path fill-rule="evenodd" clip-rule="evenodd" d="M938.016 803.615C965.444 812.876 992.365 824.97 1018.4 840L1043.68 854.598L747.797 1367.08C640.22 1553.41 417.98 1632.27 221.663 1565.98C194.235 1556.72 167.314 1544.63 141.282 1529.6L115.998 1515L411.882 1002.51C519.46 816.185 741.699 737.329 938.016 803.615ZM281.784 1461.85C420.438 1497.61 571.382 1438.64 646.472 1308.58L877.895 907.748C739.241 871.993 588.297 930.955 513.207 1061.01L281.784 1461.85Z" fill="black"/>
<path fill-rule="evenodd" clip-rule="evenodd" d="M938.016 803.615C965.444 812.876 992.365 824.97 1018.4 840L1043.68 854.598L747.797 1367.08C640.22 1553.41 417.98 1632.27 221.663 1565.98C194.235 1556.72 167.314 1544.63 141.282 1529.6L115.998 1515L411.882 1002.51C519.46 816.185 741.699 737.329 938.016 803.615ZM281.784 1461.85C420.438 1497.61 571.382 1438.64 646.472 1308.58L877.895 907.748C739.241 871.993 588.297 930.955 513.207 1061.01L281.784 1461.85Z" fill="black"/>
<path fill-rule="evenodd" clip-rule="evenodd" d="M939.664 1503.92L905.323 1444.44C819.766 1296.25 863.381 1108.93 1001.24 1012.86L1035.58 1072.34C1121.13 1220.53 1077.52 1407.85 939.664 1503.92ZM998.323 1605.52C1192.07 1476.9 1254.78 1218.01 1136.9 1013.84L1043.46 852L966.513 896.427C958.326 901.154 950.346 906.102 942.577 911.26C748.831 1039.88 686.118 1298.77 803.998 1502.94L897.436 1664.78L974.386 1620.36C982.573 1615.63 990.553 1610.68 998.323 1605.52Z" fill="black"/>
<path fill-rule="evenodd" clip-rule="evenodd" d="M939.664 1503.92L905.323 1444.44C819.766 1296.25 863.381 1108.93 1001.24 1012.86L1035.58 1072.34C1121.13 1220.53 1077.52 1407.85 939.664 1503.92ZM998.323 1605.52C1192.07 1476.9 1254.78 1218.01 1136.9 1013.84L1043.46 852L966.513 896.427C958.326 901.154 950.346 906.102 942.577 911.26C748.831 1039.88 686.118 1298.77 803.998 1502.94L897.436 1664.78L974.386 1620.36C982.573 1615.63 990.553 1610.68 998.323 1605.52Z" fill="black"/>
<path fill-rule="evenodd" clip-rule="evenodd" d="M228.9 809.996L574.631 610.389C689.765 543.916 829.375 558.241 927.805 635.77L582.075 835.377C466.941 901.85 327.33 887.525 228.9 809.996ZM122.04 871.692C257.263 1003.84 468.793 1035.88 640.575 936.702L1107.03 667.395C1086.76 632.282 1062.31 601.086 1034.67 574.074C899.443 441.922 687.912 409.886 516.131 509.064L49.6761 778.371C69.9485 813.484 94.4002 844.68 122.04 871.692Z" fill="black"/>
<path fill-rule="evenodd" clip-rule="evenodd" d="M228.9 809.996L574.631 610.389C689.765 543.916 829.375 558.241 927.805 635.77L582.075 835.377C466.941 901.85 327.33 887.525 228.9 809.996ZM122.04 871.692C257.263 1003.84 468.793 1035.88 640.575 936.702L1107.03 667.395C1086.76 632.282 1062.31 601.086 1034.67 574.074C899.443 441.922 687.912 409.886 516.131 509.064L49.6761 778.371C69.9485 813.484 94.4002 844.68 122.04 871.692Z" fill="black"/>
</svg>
